<?xml version="1.0" standalone="no"?>
<!DOCTYPE svg PUBLIC "-//W3C//DTD SVG 20010904//EN"
 "http://www.w3.org/TR/2001/REC-SVG-20010904/DTD/svg10.dtd">
<svg version="1.0" xmlns="http://www.w3.org/2000/svg"
 width="1092.000000pt" height="1092.000000pt" viewBox="0 0 1092.000000 1092.000000"
 preserveAspectRatio="xMidYMid meet">
<metadata>
Created by potrace 1.14, written by Peter Selinger 2001-2017
</metadata>
<g transform="translate(0.000000,1092.000000) scale(0.100000,-0.100000)"
fill="#000000" stroke="none">
<path d="M3411 10185 l-1 -735 58 0 c71 -1 1058 -1 1092 0 l25 0 0 243 0 242
-290 2 c-160 1 -313 2 -341 3 l-51 0 -1 245 0 245 342 0 341 0 0 243 0 242
-587 3 -587 2 0 -735z"/>
<path d="M4821 10810 c1 -61 0 -113 -2 -115 -2 -2 -2 -56 1 -120 3 -64 4 -118
2 -120 -5 -5 -3 -476 3 -484 4 -7 128 -12 280 -12 6 0 57 0 115 0 58 0 114 0
125 0 11 0 44 1 73 1 76 1 87 -4 86 -40 -1 -16 -2 -33 -3 -38 0 -4 -150 -7
-332 -7 -182 0 -335 -3 -341 -6 -11 -7 -13 -103 -3 -119 3 -5 2 -11 -2 -13 -5
-3 -6 -58 -3 -122 3 -64 2 -118 -1 -120 -3 -2 -3 -19 -1 -37 l4 -33 577 1
c317 0 581 3 587 6 5 4 9 196 8 490 l0 483 -320 2 c-175 1 -329 3 -341 3 -20
0 -23 5 -23 39 0 29 4 40 18 43 9 2 162 3 339 3 317 -1 321 -1 325 19 2 12 3
107 3 211 l-1 190 -588 3 -587 2 2 -110z"/>
<path d="M6229 10903 c0 -22 0 -816 1 -891 l0 -53 43 1 c23 0 49 0 57 -1 19
-1 198 0 225 1 30 2 33 2 140 0 55 -1 105 -1 110 0 6 1 32 2 58 1 l48 -1 -3
-42 -3 -43 -330 -1 c-181 -1 -334 -2 -340 -3 -10 -1 -11 -428 -1 -439 3 -3
267 -6 586 -6 l580 -1 1 30 c0 40 0 915 0 937 -1 16 -25 17 -313 17 -395 0
-370 -1 -363 11 3 6 2 10 -2 10 -7 0 -9 30 -4 60 1 3 151 5 333 4 183 0 338 1
343 3 8 3 11 205 5 406 0 16 -35 17 -585 17 -550 0 -585 -1 -586 -17z"/>
<path d="M1606 8772 c-15 -3 -17 -11 -12 -55 6 -50 9 -78 21 -227 3 -36 8 -87
11 -115 3 -27 7 -75 9 -105 2 -30 6 -81 9 -112 3 -32 8 -82 11 -110 14 -160
17 -197 21 -233 15 -180 21 -244 29 -330 3 -33 8 -87 10 -120 2 -33 4 -60 5
-60 3 0 8 -52 14 -140 4 -49 9 -110 11 -135 5 -42 9 -86 20 -220 2 -30 7 -80
10 -110 9 -93 15 -159 20 -223 3 -34 7 -82 9 -107 3 -25 7 -72 10 -105 3 -33
7 -85 10 -115 3 -30 8 -82 10 -115 3 -33 8 -85 11 -115 3 -30 8 -82 10 -115
11 -133 15 -182 20 -230 3 -27 7 -79 10 -115 3 -36 8 -83 10 -105 3 -22 7 -71
10 -110 3 -38 7 -88 10 -110 2 -22 7 -71 10 -110 2 -38 7 -97 11 -129 3 -33 8
-83 10 -110 1 -28 4 -51 4 -51 1 0 3 -20 5 -45 3 -50 15 -185 20 -240 7 -62
16 -163 20 -230 2 -36 5 -65 6 -65 1 0 3 -16 4 -35 2 -33 10 -126 20 -230 13
-131 16 -170 20 -228 2 -34 6 -79 9 -100 5 -34 14 -134 21 -227 2 -22 6 -69 9
-105 3 -36 9 -92 11 -125 3 -33 8 -85 11 -115 8 -80 14 -147 19 -215 3 -33 7
-82 10 -110 15 -155 17 -185 20 -235 2 -30 6 -75 9 -100 7 -58 16 -159 21
-235 2 -33 5 -60 5 -60 1 0 3 -18 4 -40 2 -22 7 -74 11 -115 4 -41 9 -93 10
-115 4 -51 15 -177 21 -235 2 -25 6 -70 9 -100 3 -30 7 -80 10 -110 3 -30 8
-82 10 -115 3 -33 7 -82 10 -110 3 -27 7 -81 10 -120 9 -108 3 -101 103 -121
8 -1 21 -6 30 -10 9 -4 28 -9 41 -11 14 -2 32 -8 42 -14 10 -5 27 -9 38 -9 12
0 29 -4 39 -9 9 -5 71 -24 137 -41 66 -18 134 -36 150 -41 92 -28 469 -131
485 -132 11 -1 20 -5 20 -10 0 -4 6 -7 13 -5 6 1 28 -3 48 -10 20 -7 47 -15
60 -17 13 -3 47 -11 74 -20 102 -30 202 -58 255 -72 68 -18 128 -34 250 -68
218 -62 298 -84 324 -90 10 -2 44 -12 75 -21 31 -9 63 -18 71 -19 8 -2 15 -4
15 -5 0 -1 7 -3 15 -5 16 -3 405 -111 455 -125 17 -5 66 -19 110 -31 44 -12
91 -25 105 -29 14 -4 52 -15 85 -24 33 -10 76 -21 95 -27 29 -8 54 -5 145 21
61 18 120 34 133 36 13 3 42 11 65 19 45 14 119 35 152 41 11 2 31 8 45 14 14
5 111 32 215 60 105 29 215 58 245 67 30 8 60 16 65 17 6 1 15 4 20 7 10 6
120 34 120 30 0 -1 27 8 60 19 33 11 61 20 63 20 1 0 3 0 5 1 1 0 11 2 22 4
11 3 76 21 145 41 69 19 132 37 140 39 8 2 139 38 290 80 151 42 293 81 315
86 22 5 51 14 65 19 14 6 34 12 45 14 11 2 54 14 95 26 41 11 82 23 90 25 32
7 381 104 448 124 17 5 32 7 32 4 0 -3 6 -1 13 4 6 6 26 13 42 17 17 4 53 13
81 21 50 14 51 15 53 57 5 71 9 123 11 123 1 0 3 23 5 50 3 49 11 145 20 235
2 25 6 76 10 115 3 38 8 86 10 105 2 19 7 71 10 115 3 44 8 98 10 120 7 66 15
154 20 224 3 36 7 84 10 106 2 22 6 69 10 105 13 146 15 177 19 210 2 19 7 71
10 115 4 44 9 105 12 135 3 30 7 78 9 105 2 28 6 77 10 110 3 33 8 85 10 115
2 30 4 55 5 55 2 0 3 21 14 165 4 47 9 103 12 125 3 22 7 63 9 90 1 28 6 81
10 120 7 71 8 85 19 230 4 44 9 91 11 105 3 14 8 63 11 110 3 47 7 101 9 120
6 66 15 175 20 220 2 25 7 77 10 115 4 39 8 90 11 115 2 25 6 74 9 110 3 36 7
83 10 105 2 22 7 76 10 120 3 44 8 98 11 120 2 22 7 69 9 105 6 72 13 147 21
230 3 30 8 80 10 110 3 30 6 73 8 95 2 22 7 74 10 115 15 173 26 284 41 443 3
28 8 81 11 117 9 122 14 175 19 230 3 30 7 78 9 105 2 28 7 79 10 115 4 36 9
90 11 120 3 30 7 71 9 90 2 19 7 73 11 120 3 47 8 103 10 125 3 22 7 69 10
105 3 36 7 85 9 110 7 61 17 173 21 240 3 30 7 80 10 110 6 53 11 109 20 215
2 28 6 75 9 105 9 93 17 183 20 225 3 41 13 152 22 240 3 28 7 73 9 100 2 28
7 76 10 108 3 31 2 57 -2 58 -23 3 -7702 3 -7717 1z"/>
</g>
</svg>
